<svg width="29.302002" height="29.302002" viewBox="0 0 29.302 29.302" fill="none" xmlns="http://www.w3.org/2000/svg" xmlns:xlink="http://www.w3.org/1999/xlink">
	<desc>
			Created with Pixso.
	</desc>
	<defs>
		<clipPath id="clip4_87">
			<rect id="coffee-beans (1)" width="29.302002" height="29.302002" fill="white" fill-opacity="0"/>
		</clipPath>
	</defs>
	<rect id="coffee-beans (1)" width="29.302002" height="29.302002" fill="#FFFFFF" fill-opacity="0"/>
	<g clip-path="url(#clip4_87)">
		<path id="Vector" d="M5.38846 26.5504C4.03448 24.1621 4.95554 20.4168 7.75693 17.6151C10.9384 14.4341 15.337 13.6759 17.5827 15.9214C17.5851 15.9242 17.5879 15.9274 17.5913 15.9304C17.1418 17.2383 15.7102 20.0203 11.42 21.5245C7.48941 22.9031 5.97354 25.0955 5.38846 26.5504ZM16.2605 19.5906C15.2344 20.6176 13.776 21.6253 11.7102 22.3503C7.51767 23.8203 6.34631 26.2275 6.01944 27.3931C6.03528 27.4089 6.04807 27.4255 6.06293 27.4401C8.30844 29.6857 12.7076 28.9274 15.8882 25.7465C18.7188 22.9159 19.6292 19.1225 18.2142 16.7383C17.8737 17.5323 17.2812 18.5698 16.2605 19.5906ZM7.58466 9.24518C12.1138 9.64209 14.564 7.69641 15.512 6.69019C15.5103 6.68616 15.5092 6.6817 15.5079 6.67804C14.387 3.70715 10.0663 2.586 5.85745 4.17407C2.15076 5.57275 -0.231903 8.6059 0.0179138 11.3398C1.1506 10.2555 3.43515 8.88226 7.58466 9.24518ZM9.9169 14.9333C13.6625 13.5206 16.0541 10.4387 15.7471 7.68311C15.1096 8.26654 14.1423 8.96808 12.7918 9.47778C11.434 9.99005 9.6897 10.308 7.50894 10.1171C3.0834 9.72906 1.02377 11.4401 0.2453 12.3682C0.253204 12.3889 0.258759 12.4091 0.26593 12.4285C1.38705 15.4002 5.70786 16.5218 9.9169 14.9333ZM23.0248 8.73792C25.7422 5.09204 25.3735 1.9848 25.0151 0.649719C25.0109 0.649231 25.0069 0.647705 25.003 0.64679C21.8859 0.039917 18.6621 3.12781 17.8023 7.54315C17.0451 11.4328 18.3749 15.0529 20.8322 16.2767C20.5046 14.7432 20.5365 12.0781 23.0248 8.73792ZM25.9836 0.971313C26.1454 1.82056 26.2341 3.01208 25.9583 4.42859C25.6811 5.85358 25.0348 7.5047 23.7271 9.26025C21.0722 12.8223 21.4461 15.4731 21.8269 16.623C21.8487 16.6275 21.869 16.6331 21.8891 16.6375C25.0065 17.2444 28.2299 14.157 29.0896 9.74127C29.8553 5.81189 28.4892 2.15717 25.9836 0.971313Z" fill="#000000" fill-opacity="1.000000" fill-rule="nonzero"/>
	</g>
</svg>
